# xmcd
#
# Track frame offsets:
#	150
#	20337
#	38712
#	57150
#	76837
#	91550
#	109587
#	129925
#	145695
#	158725
#
# Disc length: 2394 seconds
#
# Revision: 0
# Processed by: cddbd v1.4PL0 Copyright (c) Steve Scherf et al.
# Submitted via: dBpowerAMP V4.0
#
DISCID=6609580a
DTITLE=Barry Saunders - Weatherman
DYEAR=1995
DGENRE=Country
TTITLE0=Each others lives
TTITLE1=Riverina
TTITLE2=Which way does this wind blow
TTITLE3=White Island
TTITLE4=Winter sun
TTITLE5=A brave face
TTITLE6=You can't go back (Sydney song)
TTITLE7=Little times
TTITLE8=I walk the line
TTITLE9=Olio
EXTD=
EXTT0=
EXTT1=
EXTT2=
EXTT3=
EXTT4=
EXTT5=
EXTT6=
EXTT7=
EXTT8=
EXTT9=
PLAYORDER=
